<svg xmlns="http://www.w3.org/2000/svg" width="1142pt" height="297pt" viewBox="0 0 1142 297" version="1.1">
<g id="#e30613ff">
<path fill="#FFF" opacity="1.00" d=" M 129.36 7.47 C 165.42 3.67 202.81 14.01 230.90 37.15 C 256.76 57.87 274.70 88.27 280.10 120.99 C 285.80 154.58 278.52 190.21 259.67 218.64 C 242.38 245.05 215.82 265.28 185.65 274.63 C 150.56 28a5.69 111.05 281.95 78.79 264.19 C 50.64 248.88 28.07 223.49 16.44 193.60 C 1.82 156.69 4.42 113.40 23.59 78.61 C 44.48 39.55 85.26 11.98 129.36 7.47 M 132.37 19.48 C 103.42 22.20 75.61 35.49 55.31 56.31 C 32.14 79.51 18.83 112.20 19.35 145.00 C 19.45 177.34 33.09 209.25 56.02 231.99 C 79.03 255.10 111.34 268.72 144.00 268.62 C 176.99 268.99 209.77 255.38 233.00 231.99 C 256.46 208.82 270.12 176.01 269.70 143.00 C 269.72 109.42 255.17 76.25 230.70 53.32 C 204.88 28.50 167.99 15.77 132.37 19.48 Z"/>

<path fill="#FFF" opacity="1.00" d=" M 133.36 29.49 C 167.21 26.00 202.33 38.51 226.14 62.86 C 250.73 87.06 263.07 122.86 258.86 157.08 C 255.24 189.92 236.43 220.60 208.97 238.91 C 181.93 257.42 146.79 263.21 115.16 254.81 C 83.16 246.59 55.35 223.75 40.99 194.00 C 25.21 162.10 25.60 122.78 42.15 91.25 C 59.52 57.00 95.07 32.82 133.36 29.49 M 76.94 87.98 C 76.77 102.45 76.76 116.94 76.96 131.42 C 76.71 140.36 76.67 149.36 77.12 158.31 C 76.54 173.98 76.87 189.73 76.96 205.43 C 75.71 213.28 78.16 222.47 85.60 226.44 C 95.61 232.82 110.45 225.72 111.67 213.90 C 112.10 200.01 111.71 186.09 111.85 172.18 C 131.23 171.31 150.68 172.11 170.09 171.79 C 180.01 171.32 188.50 161.91 187.86 151.97 C 188.04 141.92 178.99 133.06 169.03 132.95 C 149.98 132.71 130.91 132.93 111.85 132.84 C 111.85 121.22 111.83 109.60 111.86 97.98 C 134.88 97.20 157.96 97.86 181.00 97.64 C 189.35 97.46 199.14 99.28 205.69 92.71 C 218.28 82.64 211.09 59.96 195.03 58.91 C 166.04 58.49 137.01 58.84 108.01 58.73 C 92.09 58.44 77.56 72.04 76.94 87.98 Z"/>
<path fill="#FFF" opacity="1.00" d=" M 312.06 71.14 C 339.94 71.33 367.82 71.22 395.70 71.33 C 395.70 79.62 395.63 87.92 395.74 96.21 C 376.79 96.47 357.83 96.28 338.88 96.31 C 338.64 108.35 338.83 120.41 338.78 132.45 C 356.56 132.52 374.33 132.53 392.10 132.45 C 392.41 140.76 392.18 149.09 392.23 157.41 C 374.57 157.45 356.92 157.44 339.26 157.41 C 339.23 176.87 339.33 196.32 339.21 215.78 C 330.16 215.77 321.10 215.76 312.05 215.79 C 312.05 167.57 312.04 119.36 312.06 71.14 Z"/>
<path fill="#FFF" opacity="1.00" d=" M 544.54 71.11 C 553.43 71.48 562.31 70.52 571.21 70.81 C 571.22 119.11 571.35 167.41 571.14 215.71 C 563.28 215.56 555.41 215.88 547.55 215.52 C 547.62 212.68 547.65 209.85 547.62 207.01 C 533.89 220.09 511.65 220.12 495.69 211.25 C 483.65 204.05 476.90 190.28 475.39 176.67 C 473.48 160.98 474.50 143.92 483.30 130.30 C 495.39 110.05 525.91 104.80 544.52 118.94 C 544.51 103.00 544.47 87.05 544.54 71.11 M 507.57 143.56 C 499.53 156.12 498.70 174.14 507.33 186.61 C 516.70 197.84 535.68 195.01 544.77 184.75 C 544.94 170.50 544.56 156.25 544.77 142.00 C 534.22 134.19 516.04 131.30 507.57 143.56 Z"/>
<path fill="#FFF" opacity="1.00" d=" M 722.10 71.15 C 730.51 71.15 738.93 71.18 747.35 71.13 C 747.36 119.36 747.43 167.59 747.31 215.82 C 738.90 215.73 730.49 215.78 722.07 215.79 C 722.17 167.57 722.12 119.36 722.10 71.15 Z"/>
<path fill="#FFF" opacity="1.00" d=" M 429.33 73.44 C 437.95 71.36 447.33 78.08 447.75 86.99 C 448.77 95.38 441.40 103.48 433.00 103.48 C 425.05 103.93 417.52 96.99 417.36 89.03 C 416.83 81.85 422.30 74.82 429.33 73.44 Z"/>
<path fill="#FFF" opacity="1.00" d=" M 790.35 73.48 C 799.30 71.16 809.35 78.57 808.88 87.99 C 809.60 96.17 802.03 103.57 794.00 103.49 C 786.10 103.80 778.69 96.94 778.58 89.01 C 778.03 81.90 783.46 74.99 790.35 73.48 Z"/>
<path fill="#fff" opacity="1.00" d=" M 848.35 86.59 C 857.13 86.77 865.90 86.45 874.68 86.52 C 874.72 95.11 874.67 103.70 874.71 112.30 C 882.85 112.33 890.99 112.32 899.13 112.29 C 899.31 120.46 899.22 128.63 899.19 136.80 C 891.00 136.82 882.82 136.77 874.65 136.82 C 874.74 153.52 874.16 170.28 874.92 186.93 C 878.61 196.63 890.91 194.56 899.16 194.85 C 899.29 202.50 899.22 210.15 899.20 217.80 C 887.37 218.01 874.93 217.57 864.25 211.87 C 854.96 207.29 848.35 197.49 848.29 187.05 C 848.21 170.44 848.35 153.82 848.22 137.20 C 843.27 137.21 838.31 137.28 833.37 137.10 C 833.40 128.87 833.36 120.64 833.39 112.40 C 838.34 112.43 843.30 112.44 848.26 112.39 C 848.33 103.79 848.16 95.19 848.35 86.59 Z"/>
<path fill="#fff" opacity="1.00" d=" M 594.28 164.00 C 593.32 135.53 619.58 109.79 648.00 111.15 C 672.07 109.84 696.05 129.48 697.18 154.01 C 697.80 163.88 690.32 173.83 680.04 174.05 C 661.45 174.64 642.82 174.09 624.23 174.33 C 624.28 182.31 630.51 188.89 637.85 191.19 C 648.50 194.57 660.82 193.52 670.37 187.52 C 676.73 193.61 682.94 199.84 689.16 206.08 C 670.24 220.36 642.94 221.22 621.95 211.09 C 604.40 202.72 593.01 183.42 594.28 164.00 M 624.31 150.14 C 637.22 150.09 650.12 150.43 663.03 150.25 C 666.15 150.61 669.84 147.50 667.53 144.40 C 657.75 129.46 629.04 132.16 624.31 150.14 Z"/>
<path fill="#fff" opacity="1.00" d=" M 966.37 111.48 C 988.33 107.37 1012.14 118.62 1022.83 138.25 C 1031.87 153.90 1031.85 174.28 1022.99 190.00 C 1013.92 206.83 995.05 217.66 976.00 217.57 C 957.11 217.96 938.27 207.62 928.81 191.21 C 919.46 175.54 919.00 154.90 927.91 138.94 C 935.59 124.50 950.27 114.18 966.37 111.48 M 970.43 136.72 C 956.91 139.05 946.68 152.35 947.83 166.02 C 948.35 181.54 963.70 194.23 979.03 191.81 C 994.50 190.35 1006.28 174.17 1002.84 158.99 C 1000.54 144.26 984.99 133.71 970.43 136.72 Z"/>
<path fill="#fff" opacity="1.00" d=" M 1071.34 114.36 C 1087.84 105.90 1107.98 112.48 1120.45 125.05 C 1115.13 130.85 1109.37 136.23 1103.94 141.92 C 1097.96 137.68 1089.73 133.98 1082.64 137.62 C 1078.11 139.99 1080.54 146.10 1084.59 147.46 C 1095.21 152.02 1107.14 154.93 1115.45 163.54 C 1129.09 177.66 1125.24 204.46 1107.27 213.20 C 1086.94 224.05 1061.19 214.89 1048.38 196.76 C 1053.76 191.30 1059.08 185.78 1064.60 180.47 C 1071.85 186.63 1080.90 193.29 1090.91 191.88 C 1097.19 191.12 1099.72 182.25 1094.46 178.55 C 1083.73 171.04 1068.76 170.63 1060.03 160.00 C 1047.68 145.90 1054.97 121.95 1071.34 114.36 Z"/>
<path fill="#fff" opacity="1.00" d=" M 781.26 112.40 C 789.68 112.44 798.10 112.40 806.52 112.43 C 806.50 146.87 806.46 181.32 806.54 215.76 C 798.10 215.79 789.66 215.76 781.22 215.78 C 781.29 181.32 781.21 146.86 781.26 112.40 Z"/>
<path fill="#fff" opacity="1.00" d=" M 419.78 112.46 C 428.31 112.38 436.84 112.42 445.38 112.44 C 445.35 146.90 445.46 181.36 445.32 215.82 C 436.82 215.72 428.32 215.80 419.82 215.77 C 419.73 181.33 419.81 146.90 419.78 112.46 Z"/>
</g>
<g id="#ffffffff">
<path fill="#e30613" opacity="1.00" d=" M 76.94 87.98 C 77.56 72.04 92.09 58.44 108.01 58.73 C 137.01 58.84 166.04 58.49 195.03 58.91 C 211.09 59.96 218.28 82.64 205.69 92.71 C 199.14 99.28 189.35 97.46 181.00 97.64 C 157.96 97.86 134.88 97.20 111.86 97.98 C 94.36 99.96 80.41 114.49 76.96 131.42 C 76.76 116.94 76.77 102.45 76.94 87.98 Z"/>
<path fill="#e30613" opacity="1.00" d=" M 77.12 158.31 C 80.36 142.58 95.85 131.21 111.85 132.84 C 130.91 132.93 149.98 132.71 169.03 132.95 C 178.99 133.06 188.04 141.92 187.86 151.97 C 188.50 161.91 180.01 171.32 170.09 171.79 C 150.68 172.11 131.23 171.31 111.85 172.18 C 94.42 174.09 80.51 188.62 76.96 205.43 C 76.87 189.73 76.54 173.98 77.12 158.31 Z"/>
</g>
<g id="#bcbec0ff">
<path fill="#c20712" opacity="1.00" d=" M 76.96 131.42 C 80.41 114.49 94.36 99.96 111.86 97.98 C 111.83 109.60 111.85 121.22 111.85 132.84 C 95.85 131.21 80.36 142.58 77.12 158.31 C 76.67 149.36 76.71 140.36 76.96 131.42 Z"/>
<path fill="#c20712" opacity="1.00" d=" M 76.96 205.43 C 80.51 188.62 94.42 174.09 111.85 172.18 C 111.71 186.09 112.10 200.01 111.67 213.90 C 110.45 225.72 95.61 232.82 85.60 226.44 C 78.16 222.47 75.71 213.28 76.96 205.43 Z"/>
</g>
</svg>