<?xml version="1.0" encoding="UTF-8" ?>
<!DOCTYPE svg PUBLIC "-//W3C//DTD SVG 1.1//EN" "http://www.w3.org/Graphics/SVG/1.1/DTD/svg11.dtd">
<svg width="128pt" height="55pt" viewBox="0 0 128 55" version="1.1" xmlns="http://www.w3.org/2000/svg">
<g id="#000000ff">
<path fill="#000000" opacity="1.00" d=" M 57.44 5.63 C 67.27 3.89 77.82 7.08 84.94 14.11 C 94.86 23.67 98.48 37.71 101.61 50.55 C 97.06 54.01 95.07 46.06 94.21 42.83 C 91.03 28.40 82.27 11.97 65.90 10.34 C 49.62 8.64 37.57 21.86 28.66 33.64 C 26.97 36.42 20.04 41.15 20.07 35.13 C 31.11 23.84 40.45 8.33 57.44 5.63 Z" />
<path fill="#000000" opacity="1.00" d=" M 20.41 47.30 C 39.14 41.86 46.32 19.25 66.00 16.20 C 70.74 14.70 70.62 21.37 66.11 21.13 C 50.67 24.18 44.66 40.76 31.35 47.33 C 27.96 49.20 21.68 53.58 20.41 47.30 Z" />
<path fill="#000000" opacity="1.00" d=" M 60.00 33.00 C 64.98 28.22 72.82 24.94 79.36 28.59 C 89.49 33.73 87.34 47.74 80.83 55.00 L 74.15 55.00 C 78.34 50.49 82.34 44.54 81.10 38.08 C 79.41 32.21 71.68 30.22 67.03 33.98 C 58.32 40.38 51.66 49.31 42.34 55.00 L 32.59 55.00 C 43.13 49.62 51.58 41.15 60.00 33.00 Z" />
<path fill="#000000" opacity="1.00" d=" M 55.45 55.00 C 62.70 50.43 66.22 41.41 74.39 38.29 C 74.56 45.67 67.81 50.20 63.25 55.00 L 55.45 55.00 Z" />
</g>
</svg>
