<?xml version="1.0" encoding="UTF-8" ?>
<!DOCTYPE svg PUBLIC "-//W3C//DTD SVG 1.1//EN" "http://www.w3.org/Graphics/SVG/1.1/DTD/svg11.dtd">
<svg xmlns="http://www.w3.org/2000/svg" width="733pt" height="634pt" viewBox="0 0 733 634" version="1.1" style="&#10;    /* background-color: antiquewhite; */&#10;">
<g id="#e30613ff">
<path fill="#FFF" opacity="1.00" d=" M 344.35 1.45 C 385.05 -2.51 426.79 4.67 463.73 22.25 C 514.16 45.99 555.22 88.86 576.72 140.29 C 594.21 181.61 598.91 228.16 590.32 272.18 C 578.71 333.62 540.21 389.15 487.17 422.13 C 428.27 459.57 351.81 467.22 286.59 442.47 C 226.85 420.42 177.54 372.10 154.19 312.86 C 127.99 248.02 134.10 171.20 170.50 111.44 C 206.84 50.12 273.25 7.74 344.35 1.45 M 350.33 21.40 C 314.93 24.05 280.31 36.08 250.87 55.91 C 201.58 88.62 167.44 143.18 160.18 201.95 C 154.64 244.38 162.59 288.48 182.86 326.19 C 209.24 375.97 256.61 414.14 311.01 428.95 C 354.19 440.93 401.25 438.46 442.87 421.80 C 495.45 401.08 538.61 357.95 559.39 305.39 C 575.78 264.51 578.57 218.37 567.30 175.80 C 552.71 119.44 513.08 70.30 461.27 43.83 C 427.34 26.22 388.44 18.42 350.33 21.40 Z"/>
<path fill="#FFF" opacity="1.00" d=" M 347.36 38.46 C 386.14 34.57 426.05 42.82 459.99 62.03 C 511.55 90.72 548.26 144.48 555.66 203.09 C 561.30 244.53 552.93 287.75 531.93 323.95 C 501.12 378.21 442.30 415.36 379.93 419.18 C 313.40 424.67 245.71 391.80 208.52 336.45 C 169.77 280.92 164.43 204.39 194.95 143.97 C 223.21 85.75 282.83 44.22 347.36 38.46 M 254.08 135.92 C 253.92 161.41 253.99 186.91 254.05 212.40 C 254.03 226.70 253.82 241.02 254.18 255.32 C 253.80 282.02 254.05 308.74 254.05 335.45 C 251.75 350.38 261.45 366.38 276.61 369.41 C 293.27 373.76 311.46 360.26 312.03 343.05 C 312.21 320.67 312.14 298.28 312.07 275.90 C 344.66 274.60 377.38 275.91 409.99 275.24 C 426.86 273.55 440.26 256.88 438.22 240.02 C 437.11 224.17 422.82 210.76 406.94 210.60 C 375.30 210.35 343.65 210.60 312.00 210.48 C 312.22 191.16 312.18 171.83 312.02 152.51 C 357.97 150.98 404.06 152.42 450.04 151.78 C 466.79 150.20 480.24 133.82 478.50 117.07 C 477.66 100.98 463.17 87.16 447.05 87.14 C 399.01 87.16 350.96 87.03 302.92 87.20 C 277.40 88.08 255.02 110.40 254.08 135.92 Z"/>
<path fill="#FFF" opacity="1.00" d=" M 0.00 500.86 C 25.20 501.14 50.41 500.90 75.61 501.15 C 75.63 508.67 75.65 516.19 75.60 523.71 C 58.49 523.83 41.39 523.66 24.28 523.79 C 24.24 534.68 24.21 545.58 24.29 556.47 C 40.31 556.57 56.32 556.42 72.34 556.54 C 72.40 564.05 72.41 571.55 72.33 579.06 C 56.40 579.22 40.47 579.05 24.54 579.14 C 24.43 596.77 24.57 614.40 24.47 632.04 C 16.32 632.24 8.16 632.07 0.00 632.12 L 0.00 500.86 Z"/>
<path fill="#FFF" opacity="1.00" d=" M 209.91 500.91 C 217.93 500.94 225.95 500.68 233.97 500.78 C 234.02 544.51 234.00 588.25 233.98 631.98 C 226.91 632.01 219.84 632.02 212.77 631.97 C 212.73 629.31 212.74 626.64 212.83 623.99 C 200.11 636.10 179.27 636.05 164.77 627.23 C 151.27 618.41 146.50 601.33 146.79 585.98 C 146.36 570.57 151.26 553.64 164.26 544.25 C 177.49 535.06 196.82 534.32 209.90 544.24 C 209.87 529.80 209.84 515.35 209.91 500.91 M 179.44 563.38 C 169.56 573.39 168.58 590.28 174.42 602.61 C 181.18 615.92 201.47 614.15 210.18 603.80 C 210.41 590.90 210.10 577.99 210.09 565.08 C 201.45 559.12 188.14 555.91 179.44 563.38 Z"/>
<path fill="#FFF" opacity="1.00" d=" M 370.15 500.90 C 377.75 500.85 385.36 500.85 392.97 500.90 C 393.02 544.63 393.02 588.37 392.97 632.10 C 385.36 632.14 377.75 632.15 370.15 632.10 C 370.10 588.37 370.10 544.63 370.15 500.90 Z"/>
<path fill="#FFF" opacity="1.00" d=" M 104.36 503.49 C 113.40 499.96 123.97 508.40 122.54 517.98 C 121.93 527.66 109.78 533.69 101.71 528.30 C 91.84 522.93 93.61 506.67 104.36 503.49 Z"/>
<path fill="#FFF" opacity="1.00" d=" M 430.37 503.52 C 440.06 499.64 451.11 509.53 448.37 519.58 C 446.50 529.93 431.87 534.03 424.99 526.01 C 418.00 519.37 421.23 506.36 430.37 503.52 Z"/>
<path fill="#FFF" opacity="1.00" d=" M 484.03 515.14 C 492.01 515.18 499.99 514.89 507.98 515.02 C 508.07 522.75 507.92 530.48 508.04 538.22 C 515.34 538.32 522.65 538.19 529.96 538.26 C 530.03 545.71 530.04 553.16 529.95 560.61 C 522.61 560.68 515.27 560.54 507.94 560.67 C 507.98 575.74 507.54 590.85 508.16 605.90 C 511.46 614.51 522.56 612.90 529.97 613.14 C 530.03 620.09 530.01 627.04 529.96 634.00 L 518.00 634.00 C 503.72 632.64 486.78 625.63 484.45 609.64 C 483.40 593.40 484.34 577.06 483.96 560.78 C 479.53 560.70 475.10 560.79 470.67 560.73 C 470.58 553.29 470.60 545.85 470.66 538.42 C 475.08 538.32 479.51 538.41 483.94 538.36 C 484.11 530.62 483.91 522.88 484.03 515.14 Z"/>
<path fill="#FFF" opacity="1.00" d=" M 268.03 552.03 C 282.78 536.14 308.83 532.13 327.37 543.59 C 339.46 550.80 348.54 564.53 347.51 578.93 C 347.02 586.97 340.25 594.14 332.02 594.20 C 315.32 594.64 298.59 594.20 281.88 594.42 C 283.77 613.85 310.40 614.95 323.68 606.49 C 329.24 612.05 334.94 617.47 340.39 623.16 C 332.37 630.12 321.70 632.34 311.53 634.00 L 301.57 634.00 C 292.06 632.56 282.41 630.19 274.43 624.58 C 250.44 609.19 248.31 571.72 268.03 552.03 M 281.97 572.46 C 293.93 572.39 305.89 572.83 317.84 572.52 C 320.55 572.60 322.55 569.61 320.91 567.25 C 312.02 553.92 286.21 556.29 281.97 572.46 Z"/>
<path fill="#FFF" opacity="1.00" d=" M 591.37 537.44 C 609.73 534.37 629.39 542.83 639.62 558.41 C 649.55 572.81 650.45 592.73 642.13 608.07 C 633.99 623.73 616.58 633.82 599.00 633.65 C 581.68 633.82 564.51 624.02 556.23 608.74 C 548.03 594.14 548.20 575.17 556.87 560.82 C 564.10 548.38 577.16 539.60 591.37 537.44 M 594.36 560.46 C 582.43 562.41 573.33 574.02 573.98 586.04 C 573.74 601.47 590.04 613.95 604.89 609.79 C 620.10 606.70 628.64 588.10 621.63 574.39 C 617.13 564.22 605.23 558.23 594.36 560.46 Z"/>
<path fill="#FFF" opacity="1.00" d=" M 688.68 538.70 C 703.18 533.47 719.27 539.23 729.79 549.83 C 724.95 555.02 719.82 559.94 714.88 565.03 C 709.26 561.21 701.06 557.31 694.82 561.86 C 691.26 564.89 694.94 569.47 698.33 570.60 C 706.90 573.98 716.11 576.58 723.20 582.77 C 736.41 593.62 735.68 616.82 722.00 626.99 C 716.96 631.06 710.56 632.69 704.35 634.00 L 696.49 634.00 C 683.78 632.32 672.36 624.99 664.85 614.71 C 669.60 609.78 674.39 604.87 679.27 600.06 C 686.14 605.57 694.51 612.11 703.87 610.17 C 709.65 608.86 710.65 600.33 705.45 597.60 C 695.26 591.32 681.42 590.48 674.06 579.98 C 663.83 565.81 672.52 543.98 688.68 538.70 Z"/>
<path fill="#FFF" opacity="1.00" d=" M 97.40 538.40 C 105.06 538.39 112.72 538.28 120.38 538.45 C 120.34 569.66 120.43 600.87 120.34 632.07 C 112.69 632.14 105.04 632.20 97.40 632.04 C 97.36 600.83 97.36 569.61 97.40 538.40 Z"/>
<path fill="#FFF" opacity="1.00" d=" M 423.52 538.41 C 431.13 538.35 438.74 538.35 446.35 538.41 C 446.38 569.63 446.41 600.85 446.34 632.07 C 438.74 632.16 431.13 632.16 423.53 632.07 C 423.47 600.85 423.49 569.63 423.52 538.41 Z"/>
</g>
<g id="#ffffffff">
<path fill="#e30613" opacity="1.00" d=" M 254.08 135.92 C 255.02 110.40 277.40 88.08 302.92 87.20 C 350.96 87.03 399.01 87.16 447.05 87.14 C 463.17 87.16 477.66 100.98 478.50 117.07 C 480.24 133.82 466.79 150.20 450.04 151.78 C 404.06 152.42 357.97 150.98 312.02 152.51 C 281.73 155.86 257.12 182.39 254.05 212.40 C 253.99 186.91 253.92 161.41 254.08 135.92 Z"/>
<path fill="#e30613" opacity="1.00" d=" M 254.18 255.32 C 257.89 228.01 284.64 207.41 312.00 210.48 C 343.65 210.60 375.30 210.35 406.94 210.60 C 422.82 210.76 437.11 224.17 438.22 240.02 C 440.26 256.88 426.86 273.55 409.99 275.24 C 377.38 275.91 344.66 274.60 312.07 275.90 C 281.85 279.25 257.34 305.54 254.05 335.45 C 254.05 308.74 253.80 282.02 254.18 255.32 Z"/>
</g>
<g id="#c20712">
<path fill="#c20712" opacity="1.00" d=" M 254.05 212.40 C 257.12 182.39 281.73 155.86 312.02 152.51 C 312.18 171.83 312.22 191.16 312.00 210.48 C 284.64 207.41 257.89 228.01 254.18 255.32 C 253.82 241.02 254.03 226.70 254.05 212.40 Z"/>
<path fill="#c20712" opacity="1.00" d=" M 254.05 335.45 C 257.34 305.54 281.85 279.25 312.07 275.90 C 312.14 298.28 312.21 320.67 312.03 343.05 C 311.46 360.26 293.27 373.76 276.61 369.41 C 261.45 366.38 251.75 350.38 254.05 335.45 Z"/>
</g>
</svg>