<?xml version="1.0" encoding="UTF-8" ?>
<!DOCTYPE svg PUBLIC "-//W3C//DTD SVG 1.1//EN" "http://www.w3.org/Graphics/SVG/1.1/DTD/svg11.dtd">
<svg xmlns="http://www.w3.org/2000/svg" width="1142pt" height="297pt" viewBox="0 0 1142 297" version="1.1">
<g id="#e30613ff">
<path fill="#FFF" opacity="1.00" d=" M 129.37 7.47 C 165.42 3.67 202.81 14.01 230.90 37.14 C 256.50 57.67 274.35 87.67 279.93 120.02 C 285.94 153.89 278.70 189.94 259.67 218.64 C 242.24 245.27 215.37 265.62 184.88 274.87 C 149.99 285.64 110.81 281.83 78.79 264.19 C 50.86 249.00 28.42 223.89 16.72 194.30 C 1.89 157.48 4.26 114.16 23.23 79.27 C 44.02 39.87 85.01 12.00 129.37 7.47 M 132.37 19.48 C 103.18 22.22 75.17 35.71 54.81 56.81 C 31.95 79.98 18.84 112.44 19.35 145.01 C 19.45 177.34 33.08 209.25 56.01 231.99 C 79.03 255.10 111.34 268.72 144.00 268.62 C 176.99 268.99 209.78 255.38 233.00 231.99 C 256.47 208.82 270.12 176.00 269.70 142.99 C 269.72 109.18 254.96 75.78 230.17 52.83 C 204.40 28.32 167.75 15.80 132.37 19.48 Z"/>
<path fill="#FFF" opacity="1.00" d=" M 133.37 29.49 C 162.72 26.52 193.07 35.40 216.11 53.85 C 243.07 75.00 259.70 108.68 259.61 143.00 C 260.16 178.39 242.93 213.40 214.74 234.75 C 188.10 255.53 152.04 263.32 119.15 255.77 C 86.01 248.54 56.78 225.68 41.66 195.34 C 25.22 163.20 25.36 123.23 42.15 91.26 C 59.52 57.00 95.07 32.83 133.37 29.49 M 76.93 87.97 C 76.77 102.45 76.80 116.94 76.93 131.43 C 76.79 140.38 76.63 149.37 77.11 158.32 C 76.53 174.00 76.91 189.74 76.93 205.45 C 75.84 213.06 77.93 221.92 84.97 226.07 C 94.96 233.05 110.44 226.01 111.68 213.89 C 112.06 200.00 111.75 186.09 111.83 172.19 C 131.53 171.25 151.31 172.20 171.03 171.72 C 180.56 170.71 188.47 161.59 187.86 151.97 C 188.04 141.92 178.99 133.07 169.04 132.95 C 149.98 132.72 130.90 132.92 111.82 132.85 C 111.88 121.22 111.83 109.60 111.85 97.97 C 139.54 97.15 167.31 97.96 195.02 97.57 C 205.68 96.60 214.06 85.52 211.91 74.99 C 210.57 65.95 202.13 58.74 193.00 58.74 C 164.34 58.73 135.68 58.69 107.02 58.76 C 91.45 58.97 77.57 72.40 76.93 87.97 Z"/>
<path fill="#FFF" opacity="1.00" d=" M 312.05 71.16 C 339.93 71.31 367.81 71.22 395.69 71.34 C 395.72 79.60 395.59 87.87 395.76 96.13 C 376.83 96.59 357.86 96.21 338.91 96.31 C 338.61 108.35 338.84 120.40 338.79 132.45 C 356.44 132.61 374.10 132.37 391.75 132.56 C 392.92 140.52 391.92 149.18 392.22 157.41 C 374.57 157.47 356.92 157.42 339.26 157.43 C 339.24 176.87 339.29 196.31 339.24 215.76 C 330.18 215.79 321.11 215.76 312.05 215.78 C 312.05 167.57 312.04 119.37 312.05 71.16 Z"/>
<path fill="#FFF" opacity="1.00" d=" M 544.52 71.13 C 553.42 71.47 562.30 70.52 571.20 70.81 C 571.23 119.11 571.34 167.41 571.15 215.70 C 563.28 215.52 555.39 215.96 547.53 215.47 C 547.66 212.63 547.67 209.79 547.61 206.95 C 533.97 220.14 511.63 220.10 495.69 211.25 C 483.66 204.05 476.89 190.28 475.40 176.66 C 473.47 160.98 474.50 143.93 483.30 130.31 C 495.37 110.07 525.95 104.76 544.50 118.97 C 544.53 103.03 544.48 87.08 544.52 71.13 M 507.56 143.57 C 499.53 156.13 498.70 174.15 507.33 186.61 C 516.69 197.82 535.73 195.04 544.76 184.71 C 544.96 170.51 544.54 156.30 544.78 142.09 C 534.32 134.11 516.03 131.32 507.56 143.57 Z"/>
<path fill="#FFF" opacity="1.00" d=" M 722.10 71.16 C 730.52 71.15 738.94 71.17 747.36 71.15 C 747.37 119.36 747.40 167.58 747.35 215.79 C 738.92 215.75 730.49 215.78 722.07 215.77 C 722.17 167.57 722.12 119.37 722.10 71.16 Z"/>
<path fill="#FFF" opacity="1.00" d=" M 429.33 73.43 C 437.95 71.36 447.34 78.08 447.75 87.00 C 448.77 95.38 441.39 103.48 433.00 103.48 C 425.05 103.93 417.52 96.99 417.37 89.03 C 416.82 81.85 422.31 74.82 429.33 73.43 Z"/>
<path fill="#FFF" opacity="1.00" d=" M 790.35 73.47 C 799.30 71.17 809.37 78.57 808.87 88.00 C 809.61 96.17 802.02 103.58 794.00 103.48 C 786.11 103.80 778.69 96.94 778.59 89.01 C 778.01 81.90 783.47 75.00 790.35 73.47 Z"/>
<path fill="#FFF" opacity="1.00" d=" M 848.33 86.61 C 857.11 86.75 865.89 86.44 874.68 86.53 C 874.74 95.12 874.65 103.70 874.72 112.29 C 882.87 112.35 891.02 112.28 899.18 112.32 C 899.27 120.47 899.23 128.63 899.21 136.78 C 891.02 136.85 882.83 136.75 874.64 136.83 C 874.73 153.52 874.19 170.28 874.91 186.93 C 878.63 196.63 890.92 194.58 899.19 194.82 C 899.26 202.47 899.23 210.13 899.20 217.78 C 887.37 218.03 874.93 217.56 864.25 211.86 C 854.96 207.29 848.35 197.50 848.29 187.06 C 848.23 170.45 848.32 153.84 848.25 137.23 C 843.29 137.15 838.33 137.33 833.39 137.11 C 833.38 128.87 833.36 120.64 833.40 112.41 C 838.35 112.40 843.30 112.46 848.26 112.39 C 848.33 103.79 848.19 95.20 848.33 86.61 Z"/>
<path fill="#FFF" opacity="1.00" d=" M 594.28 164.00 C 593.30 135.53 619.58 109.78 648.00 111.16 C 672.07 109.82 696.04 129.49 697.19 154.01 C 697.79 163.88 690.32 173.81 680.04 174.06 C 661.48 174.62 642.88 174.11 624.30 174.32 C 624.15 182.61 631.01 189.27 638.58 191.43 C 649.06 194.47 661.07 193.43 670.38 187.50 C 676.70 193.62 682.95 199.82 689.15 206.08 C 670.24 220.37 642.93 221.21 621.94 211.09 C 604.41 202.72 593.00 183.42 594.28 164.00 M 624.38 150.14 C 637.26 150.11 650.15 150.39 663.04 150.27 C 666.16 150.61 669.84 147.50 667.53 144.40 C 657.80 129.47 628.95 132.14 624.38 150.14 Z"/>
<path fill="#FFF" opacity="1.00" d=" M 966.36 111.48 C 988.08 107.42 1011.61 118.36 1022.46 137.60 C 1031.71 153.12 1031.99 173.50 1023.34 189.34 C 1014.41 206.53 995.30 217.68 976.00 217.56 C 957.11 217.97 938.27 207.61 928.81 191.21 C 919.46 175.54 919.00 154.90 927.91 138.94 C 935.59 124.50 950.27 114.18 966.36 111.48 M 970.43 136.71 C 956.91 139.07 946.67 152.35 947.83 166.03 C 948.34 181.85 964.32 194.67 979.88 191.68 C 994.97 189.79 1006.18 173.86 1002.85 159.00 C 1000.54 144.26 985.00 133.72 970.43 136.71 Z"/>
<path fill="#FFF" opacity="1.00" d=" M 1067.00 117.00 C 1083.58 104.95 1107.01 111.17 1120.47 125.07 C 1115.10 130.83 1109.38 136.25 1103.92 141.92 C 1097.85 137.57 1089.05 133.66 1082.05 138.05 C 1077.87 141.01 1081.35 146.59 1085.24 147.81 C 1095.54 151.96 1106.81 155.03 1114.96 163.04 C 1128.95 176.80 1125.61 203.70 1107.91 212.84 C 1087.57 224.22 1061.27 215.12 1048.40 196.73 C 1053.76 191.28 1059.09 185.79 1064.58 180.47 C 1071.84 186.62 1080.89 193.29 1090.91 191.88 C 1097.56 191.08 1099.71 181.54 1093.91 178.10 C 1082.76 170.93 1067.53 170.22 1059.12 158.90 C 1049.15 146.08 1054.07 125.95 1067.00 117.00 Z"/>
<path fill="#FFF" opacity="1.00" d=" M 781.26 112.41 C 789.68 112.44 798.09 112.39 806.50 112.44 C 806.51 146.88 806.46 181.32 806.53 215.76 C 798.09 215.79 789.66 215.76 781.22 215.78 C 781.29 181.32 781.21 146.87 781.26 112.41 Z"/>
<path fill="#FFF" opacity="1.00" d=" M 419.79 112.47 C 428.32 112.38 436.84 112.42 445.37 112.44 C 445.39 146.89 445.41 181.34 445.36 215.79 C 436.84 215.74 428.32 215.81 419.80 215.75 C 419.76 181.32 419.78 146.89 419.79 112.47 Z"/>
</g>
<g id="#ffffffff">
<path fill="#e30613" opacity="1.00" d=" M 76.93 87.97 C 77.57 72.40 91.45 58.97 107.02 58.76 C 135.68 58.69 164.34 58.73 193.00 58.74 C 202.13 58.74 210.57 65.95 211.91 74.99 C 214.06 85.52 205.68 96.60 195.02 97.57 C 167.31 97.96 139.54 97.15 111.85 97.97 C 94.33 99.96 80.45 114.52 76.93 131.43 C 76.80 116.94 76.77 102.45 76.93 87.97 Z"/>
<path fill="#e30613" opacity="1.00" d=" M 77.11 158.32 C 80.34 142.59 95.83 131.20 111.82 132.85 C 130.90 132.92 149.98 132.72 169.04 132.95 C 178.99 133.07 188.04 141.92 187.86 151.97 C 188.47 161.59 180.56 170.71 171.03 171.72 C 151.31 172.20 131.53 171.25 111.83 172.19 C 94.38 174.08 80.54 188.67 76.93 205.45 C 76.91 189.74 76.53 174.00 77.11 158.32 Z"/>
</g>
<g id="#bcbec0ff">
<path fill="#c20712" opacity="1.00" d=" M 76.93 131.43 C 80.45 114.52 94.33 99.96 111.85 97.97 C 111.83 109.60 111.88 121.22 111.82 132.85 C 95.83 131.20 80.34 142.59 77.11 158.32 C 76.63 149.37 76.79 140.38 76.93 131.43 Z"/>
<path fill="#c20712" opacity="1.00" d=" M 76.93 205.45 C 80.54 188.67 94.38 174.08 111.83 172.19 C 111.75 186.09 112.06 200.00 111.68 213.89 C 110.44 226.01 94.96 233.05 84.97 226.07 C 77.93 221.92 75.84 213.06 76.93 205.45 Z"/>
</g>
</svg>